<svg width="440" height="900" viewBox="0 0 440 900" fill="none" xmlns="http://www.w3.org/2000/svg">
<rect width="440" height="900" fill="#E51937"/>
<path d="M68.66 349.3C66.52 349.3 64.59 348.84 62.87 347.92C61.15 346.98 59.8 345.69 58.82 344.05C57.84 342.39 57.35 340.54 57.35 338.5C57.35 336.46 57.84 334.62 58.82 332.98C59.8 331.32 61.15 330.03 62.87 329.11C64.59 328.17 66.52 327.7 68.66 327.7C70.8 327.7 72.73 328.17 74.45 329.11C76.17 330.03 77.52 331.31 78.5 332.95C79.48 334.59 79.97 336.44 79.97 338.5C79.97 340.56 79.48 342.41 78.5 344.05C77.52 345.69 76.17 346.98 74.45 347.92C72.73 348.84 70.8 349.3 68.66 349.3ZM68.66 345.88C70.06 345.88 71.32 345.57 72.44 344.95C73.56 344.31 74.44 343.43 75.08 342.31C75.72 341.17 76.04 339.9 76.04 338.5C76.04 337.1 75.72 335.84 75.08 334.72C74.44 333.58 73.56 332.7 72.44 332.08C71.32 331.44 70.06 331.12 68.66 331.12C67.26 331.12 66 331.44 64.88 332.08C63.76 332.7 62.88 333.58 62.24 334.72C61.6 335.84 61.28 337.1 61.28 338.5C61.28 339.9 61.6 341.17 62.24 342.31C62.88 343.43 63.76 344.31 64.88 344.95C66 345.57 67.26 345.88 68.66 345.88ZM101.442 345.82V352.69H97.9318V349H83.8618V332.98H87.6118V345.82H95.2618V332.98H99.0118V345.82H101.442ZM119.78 341.08C119.78 341.34 119.76 341.71 119.72 342.19H107.15C107.37 343.37 107.94 344.31 108.86 345.01C109.8 345.69 110.96 346.03 112.34 346.03C114.1 346.03 115.55 345.45 116.69 344.29L118.7 346.6C117.98 347.46 117.07 348.11 115.97 348.55C114.87 348.99 113.63 349.21 112.25 349.21C110.49 349.21 108.94 348.86 107.6 348.16C106.26 347.46 105.22 346.49 104.48 345.25C103.76 343.99 103.4 342.57 103.4 340.99C103.4 339.43 103.75 338.03 104.45 336.79C105.17 335.53 106.16 334.55 107.42 333.85C108.68 333.15 110.1 332.8 111.68 332.8C113.24 332.8 114.63 333.15 115.85 333.85C117.09 334.53 118.05 335.5 118.73 336.76C119.43 338 119.78 339.44 119.78 341.08ZM111.68 335.8C110.48 335.8 109.46 336.16 108.62 336.88C107.8 337.58 107.3 338.52 107.12 339.7H116.21C116.05 338.54 115.56 337.6 114.74 336.88C113.92 336.16 112.9 335.8 111.68 335.8ZM123.881 332.98H127.631V339.49H135.701V332.98H139.451V349H135.701V342.67H127.631V349H123.881V332.98ZM151.137 342.58H148.227V349H144.477V332.98H148.227V339.46H151.227L155.967 332.98H159.987L154.167 340.69L160.377 349H155.967L151.137 342.58ZM168.699 332.8C171.059 332.8 172.859 333.37 174.099 334.51C175.359 335.63 175.989 337.33 175.989 339.61V349H172.449V347.05C171.989 347.75 171.329 348.29 170.469 348.67C169.629 349.03 168.609 349.21 167.409 349.21C166.209 349.21 165.159 349.01 164.259 348.61C163.359 348.19 162.659 347.62 162.159 346.9C161.679 346.16 161.439 345.33 161.439 344.41C161.439 342.97 161.969 341.82 163.029 340.96C164.109 340.08 165.799 339.64 168.099 339.64H172.239V339.4C172.239 338.28 171.899 337.42 171.219 336.82C170.559 336.22 169.569 335.92 168.249 335.92C167.349 335.92 166.459 336.06 165.579 336.34C164.719 336.62 163.989 337.01 163.389 337.51L161.919 334.78C162.759 334.14 163.769 333.65 164.949 333.31C166.129 332.97 167.379 332.8 168.699 332.8ZM168.189 346.48C169.129 346.48 169.959 346.27 170.679 345.85C171.419 345.41 171.939 344.79 172.239 343.99V342.13H168.369C166.209 342.13 165.129 342.84 165.129 344.26C165.129 344.94 165.399 345.48 165.939 345.88C166.479 346.28 167.229 346.48 168.189 346.48ZM198.49 340.66C199.49 340.94 200.26 341.4 200.8 342.04C201.36 342.66 201.64 343.41 201.64 344.29C201.64 345.27 201.31 346.14 200.65 346.9C199.99 347.64 199.08 348.22 197.92 348.64C196.76 349.06 195.44 349.27 193.96 349.27C192.72 349.27 191.51 349.13 190.33 348.85C189.15 348.55 188.08 348.13 187.12 347.59L188.2 344.8C188.98 345.24 189.86 345.58 190.84 345.82C191.82 346.06 192.8 346.18 193.78 346.18C195.04 346.18 196.02 345.99 196.72 345.61C197.44 345.21 197.8 344.67 197.8 343.99C197.8 343.37 197.52 342.89 196.96 342.55C196.42 342.21 195.65 342.04 194.65 342.04H191.53V339.52H194.35C195.29 339.52 196.02 339.36 196.54 339.04C197.08 338.72 197.35 338.27 197.35 337.69C197.35 337.11 197.03 336.65 196.39 336.31C195.75 335.97 194.87 335.8 193.75 335.8C192.15 335.8 190.46 336.19 188.68 336.97L187.72 334.21C189.82 333.23 191.94 332.74 194.08 332.74C195.44 332.74 196.66 332.93 197.74 333.31C198.82 333.67 199.66 334.19 200.26 334.87C200.88 335.53 201.19 336.29 201.19 337.15C201.19 337.93 200.95 338.63 200.47 339.25C199.99 339.85 199.33 340.32 198.49 340.66ZM211.502 332.8C213.862 332.8 215.662 333.37 216.902 334.51C218.162 335.63 218.792 337.33 218.792 339.61V349H215.252V347.05C214.792 347.75 214.132 348.29 213.272 348.67C212.432 349.03 211.412 349.21 210.212 349.21C209.012 349.21 207.962 349.01 207.062 348.61C206.162 348.19 205.462 347.62 204.962 346.9C204.482 346.16 204.242 345.33 204.242 344.41C204.242 342.97 204.772 341.82 205.832 340.96C206.912 340.08 208.602 339.64 210.902 339.64H215.042V339.4C215.042 338.28 214.702 337.42 214.022 336.82C213.362 336.22 212.372 335.92 211.052 335.92C210.152 335.92 209.262 336.06 208.382 336.34C207.522 336.62 206.792 337.01 206.192 337.51L204.722 334.78C205.562 334.14 206.572 333.65 207.752 333.31C208.932 332.97 210.182 332.8 211.502 332.8ZM210.992 346.48C211.932 346.48 212.762 346.27 213.482 345.85C214.222 345.41 214.742 344.79 215.042 343.99V342.13H211.172C209.012 342.13 207.932 342.84 207.932 344.26C207.932 344.94 208.202 345.48 208.742 345.88C209.282 346.28 210.032 346.48 210.992 346.48ZM247.042 332.98V349H223.432V332.98H227.182V345.82H233.392V332.98H237.142V345.82H243.292V332.98H247.042ZM249.352 345.82V352.3H245.842V349H243.172V345.82H249.352ZM252.084 332.98H255.834V343.54L264.684 332.98H268.104V349H264.354V338.44L255.534 349H252.084V332.98ZM285.839 336.16H280.229V349H276.479V336.16H270.839V332.98H285.839V336.16ZM296.359 338.26C298.399 338.26 299.959 338.72 301.039 339.64C302.119 340.56 302.659 341.86 302.659 343.54C302.659 345.3 302.059 346.66 300.859 347.62C299.679 348.58 297.999 349.05 295.819 349.03L288.559 349V332.98H292.309V338.23L296.359 338.26ZM304.729 332.98H308.479V349H304.729V332.98ZM295.489 346.27C296.589 346.29 297.429 346.06 298.009 345.58C298.589 345.1 298.879 344.4 298.879 343.48C298.879 342.58 298.599 341.92 298.039 341.5C297.479 341.08 296.629 340.86 295.489 340.84L292.309 340.81V346.24L295.489 346.27ZM314.66 337.78C313.98 337.78 313.4 337.55 312.92 337.09C312.44 336.61 312.2 336.01 312.2 335.29C312.2 334.55 312.43 333.95 312.89 333.49C313.37 333.03 313.96 332.8 314.66 332.8C315.36 332.8 315.94 333.03 316.4 333.49C316.88 333.95 317.12 334.55 317.12 335.29C317.12 336.01 316.88 336.61 316.4 337.09C315.92 337.55 315.34 337.78 314.66 337.78ZM314.66 349.21C313.98 349.21 313.4 348.98 312.92 348.52C312.44 348.04 312.2 347.44 312.2 346.72C312.2 345.98 312.43 345.38 312.89 344.92C313.37 344.46 313.96 344.23 314.66 344.23C315.36 344.23 315.94 344.46 316.4 344.92C316.88 345.38 317.12 345.98 317.12 346.72C317.12 347.44 316.88 348.04 316.4 348.52C315.92 348.98 315.34 349.21 314.66 349.21Z" fill="white"/>
<path d="M63.106 402.204C65.18 402.204 66.897 401.456 68.019 400.079L66.251 398.447C65.452 399.382 64.449 399.858 63.259 399.858C61.032 399.858 59.451 398.294 59.451 396.05C59.451 393.806 61.032 392.242 63.259 392.242C64.449 392.242 65.452 392.718 66.251 393.636L68.019 392.004C66.897 390.644 65.18 389.896 63.123 389.896C59.417 389.896 56.663 392.463 56.663 396.05C56.663 399.637 59.417 402.204 63.106 402.204ZM69.814 390.1V402H72.551V392.344H77.923V402H80.66V390.1H69.814ZM86.3469 399.79V397.036H91.8719V394.894H86.3469V392.31H92.6029V390.1H83.6099V402H92.8239V399.79H86.3469ZM100.199 390.1H95.0483V402H97.8023V398.719H100.199C103.378 398.719 105.367 397.07 105.367 394.418C105.367 391.749 103.378 390.1 100.199 390.1ZM100.046 396.475H97.8023V392.344H100.046C101.729 392.344 102.579 393.109 102.579 394.418C102.579 395.71 101.729 396.475 100.046 396.475ZM109.921 399.79V397.036H115.446V394.894H109.921V392.31H116.177V390.1H107.184V402H116.398V399.79H109.921ZM129.231 399.756V390.1H120.085L119.949 393.823C119.83 397.155 119.439 399.705 117.892 399.756H117.416L117.399 404.465H119.949V402H128.347V404.465H130.897V399.756H129.231ZM122.38 394.078L122.431 392.344H126.511V399.756H121.19C122.006 398.787 122.278 396.611 122.38 394.078ZM132.75 402H135.351L141.029 394.265V402H143.749V390.1H141.165L135.487 397.852V390.1H132.75V402Z" fill="white"/>
<path d="M219.5 383L222.306 391.637H231.388L224.041 396.975L226.847 405.613L219.5 400.275L212.153 405.613L214.959 396.975L207.612 391.637H216.694L219.5 383Z" fill="white"/>
<path d="M248.5 383L251.306 391.637H260.388L253.041 396.975L255.847 405.613L248.5 400.275L241.153 405.613L243.959 396.975L236.612 391.637H245.694L248.5 383Z" fill="white"/>
<path d="M277.5 383L280.306 391.637H289.388L282.041 396.975L284.847 405.613L277.5 400.275L270.153 405.613L272.959 396.975L265.612 391.637H274.694L277.5 383Z" fill="white"/>
<path d="M306.5 383L309.306 391.637H318.388L311.041 396.975L313.847 405.613L306.5 400.275L299.153 405.613L301.959 396.975L294.612 391.637H303.694L306.5 383Z" fill="white"/>
<path d="M334.5 383L337.306 391.637H346.388L339.041 396.975L341.847 405.613L334.5 400.275L327.153 405.613L329.959 396.975L322.612 391.637H331.694L334.5 383Z" fill="white"/>
<path d="M63.106 439.204C65.18 439.204 66.897 438.456 68.019 437.079L66.251 435.447C65.452 436.382 64.449 436.858 63.259 436.858C61.032 436.858 59.451 435.294 59.451 433.05C59.451 430.806 61.032 429.242 63.259 429.242C64.449 429.242 65.452 429.718 66.251 430.636L68.019 429.004C66.897 427.644 65.18 426.896 63.123 426.896C59.417 426.896 56.663 429.463 56.663 433.05C56.663 436.637 59.417 439.204 63.106 439.204ZM69.814 439H75.458C78.518 439 80.269 437.623 80.269 435.243C80.269 432.965 78.722 431.741 75.849 431.741H72.551V429.293H79.419V427.1H69.814V439ZM72.551 436.96V433.764H75.305C76.75 433.764 77.481 434.274 77.481 435.328C77.481 436.399 76.716 436.96 75.305 436.96H72.551ZM88.0427 439.204C91.7827 439.204 94.5537 436.603 94.5537 433.05C94.5537 429.497 91.7827 426.896 88.0427 426.896C84.2857 426.896 81.5317 429.514 81.5317 433.05C81.5317 436.586 84.2857 439.204 88.0427 439.204ZM88.0427 436.858C85.9177 436.858 84.3197 435.311 84.3197 433.05C84.3197 430.789 85.9177 429.242 88.0427 429.242C90.1677 429.242 91.7657 430.789 91.7657 433.05C91.7657 435.311 90.1677 436.858 88.0427 436.858ZM104.376 439H107.504L103.492 432.846L107.385 427.1H104.478L101.35 431.911H99.3783V427.1H96.6413V439H99.3783V434.206H101.282L104.376 439ZM117.051 427.1L113.787 433.492L110.625 427.1H107.684L112.376 435.838L112.274 435.974C111.815 436.688 111.288 436.994 110.608 436.994C110.251 436.994 109.86 436.909 109.418 436.773L108.755 438.864C109.418 439.136 110.064 439.272 110.693 439.272C112.291 439.272 113.702 438.354 114.688 436.518L119.754 427.1H117.051Z" fill="white"/>
<path d="M219.5 420L222.306 428.637H231.388L224.041 433.975L226.847 442.613L219.5 437.275L212.153 442.613L214.959 433.975L207.612 428.637H216.694L219.5 420Z" fill="white"/>
<path d="M248.5 420L251.306 428.637H260.388L253.041 433.975L255.847 442.613L248.5 437.275L241.153 442.613L243.959 433.975L236.612 428.637H245.694L248.5 420Z" fill="white"/>
<path d="M277.5 420L280.306 428.637H289.388L282.041 433.975L284.847 442.613L277.5 437.275L270.153 442.613L272.959 433.975L265.612 428.637H274.694L277.5 420Z" fill="white"/>
<path d="M306.5 420L309.306 428.637H318.388L311.041 433.975L313.847 442.613L306.5 437.275L299.153 442.613L301.959 433.975L294.612 428.637H303.694L306.5 420Z" fill="white"/>
<path d="M334.5 420L337.306 428.637H346.388L339.041 433.975L341.847 442.613L334.5 437.275L327.153 442.613L329.959 433.975L322.612 428.637H331.694L334.5 420Z" fill="white"/>
<path d="M63.106 476.204C65.18 476.204 66.897 475.456 68.019 474.079L66.251 472.447C65.452 473.382 64.449 473.858 63.259 473.858C61.032 473.858 59.451 472.294 59.451 470.05C59.451 467.806 61.032 466.242 63.259 466.242C64.449 466.242 65.452 466.718 66.251 467.636L68.019 466.004C66.897 464.644 65.18 463.896 63.123 463.896C59.417 463.896 56.663 466.463 56.663 470.05C56.663 473.637 59.417 476.204 63.106 476.204ZM69.814 476H75.458C78.518 476 80.269 474.623 80.269 472.243C80.269 469.965 78.722 468.741 75.849 468.741H72.551V466.293H79.419V464.1H69.814V476ZM72.551 473.96V470.764H75.305C76.75 470.764 77.481 471.274 77.481 472.328C77.481 473.399 76.716 473.96 75.305 473.96H72.551ZM88.0427 476.204C91.7827 476.204 94.5537 473.603 94.5537 470.05C94.5537 466.497 91.7827 463.896 88.0427 463.896C84.2857 463.896 81.5317 466.514 81.5317 470.05C81.5317 473.586 84.2857 476.204 88.0427 476.204ZM88.0427 473.858C85.9177 473.858 84.3197 472.311 84.3197 470.05C84.3197 467.789 85.9177 466.242 88.0427 466.242C90.1677 466.242 91.7657 467.789 91.7657 470.05C91.7657 472.311 90.1677 473.858 88.0427 473.858ZM104.376 476H107.504L103.492 469.846L107.385 464.1H104.478L101.35 468.911H99.3783V464.1H96.6413V476H99.3783V471.206H101.282L104.376 476ZM117.051 464.1L113.787 470.492L110.625 464.1H107.684L112.376 472.838L112.274 472.974C111.815 473.688 111.288 473.994 110.608 473.994C110.251 473.994 109.86 473.909 109.418 473.773L108.755 475.864C109.418 476.136 110.064 476.272 110.693 476.272C112.291 476.272 113.702 475.354 114.688 473.518L119.754 464.1H117.051Z" fill="white"/>
<path opacity="0.7" d="M124.98 477.94H126.47C125.62 476.44 125.26 474.94 125.26 473.26C125.26 471.58 125.62 470.08 126.47 468.58H124.98C124.18 469.77 123.73 471.42 123.73 473.26C123.73 475.1 124.18 476.73 124.98 477.94ZM130.754 476.12C131.974 476.12 132.984 475.68 133.644 474.87L132.604 473.91C132.134 474.46 131.544 474.74 130.844 474.74C129.534 474.74 128.604 473.82 128.604 472.5C128.604 471.18 129.534 470.26 130.844 470.26C131.544 470.26 132.134 470.54 132.604 471.08L133.644 470.12C132.984 469.32 131.974 468.88 130.764 468.88C128.584 468.88 126.964 470.39 126.964 472.5C126.964 474.61 128.584 476.12 130.754 476.12ZM139.982 469H133.912V470.32H136.142V476H137.742V470.32H139.982V469ZM144.241 476.12C146.441 476.12 148.071 474.59 148.071 472.5C148.071 470.41 146.441 468.88 144.241 468.88C142.031 468.88 140.411 470.42 140.411 472.5C140.411 474.58 142.031 476.12 144.241 476.12ZM144.241 474.74C142.991 474.74 142.051 473.83 142.051 472.5C142.051 471.17 142.991 470.26 144.241 470.26C145.491 470.26 146.431 471.17 146.431 472.5C146.431 473.83 145.491 474.74 144.241 474.74ZM152.549 468.55C153.859 468.55 154.479 468 154.489 467.02H153.379C153.369 467.5 153.079 467.75 152.549 467.75C151.999 467.75 151.729 467.5 151.719 467.02H150.609C150.619 468 151.219 468.55 152.549 468.55ZM149.319 476H150.849L154.189 471.45V476H155.789V469H154.269L150.929 473.56V469H149.319V476ZM162.062 476H163.902L161.542 472.38L163.832 469H162.122L160.282 471.83H159.122V469H157.512V476H159.122V473.18H160.242L162.062 476ZM169.884 476H171.584L168.454 469H166.854L163.734 476H165.394L166.014 474.5H169.264L169.884 476ZM166.534 473.27L167.644 470.59L168.754 473.27H166.534ZM173.233 477.94C174.053 476.73 174.493 475.1 174.493 473.26C174.493 471.42 174.053 469.77 173.233 468.58H171.743C172.603 470.08 172.963 471.58 172.963 473.26C172.963 474.94 172.603 476.44 171.743 477.94H173.233Z" fill="white"/>
<path d="M219.5 457L222.306 465.637H231.388L224.041 470.975L226.847 479.613L219.5 474.275L212.153 479.613L214.959 470.975L207.612 465.637H216.694L219.5 457Z" fill="white"/>
<path d="M248.5 457L251.306 465.637H260.388L253.041 470.975L255.847 479.613L248.5 474.275L241.153 479.613L243.959 470.975L236.612 465.637H245.694L248.5 457Z" fill="white"/>
<path d="M277.5 457L280.306 465.637H289.388L282.041 470.975L284.847 479.613L277.5 474.275L270.153 479.613L272.959 470.975L265.612 465.637H274.694L277.5 457Z" fill="white"/>
<path d="M306.5 457L309.306 465.637H318.388L311.041 470.975L313.847 479.613L306.5 474.275L299.153 479.613L301.959 470.975L294.612 465.637H303.694L306.5 457Z" fill="white"/>
<path d="M334.5 457L337.306 465.637H346.388L339.041 470.975L341.847 479.613L334.5 474.275L327.153 479.613L329.959 470.975L322.612 465.637H331.694L334.5 457Z" fill="white"/>
<path d="M65.724 506.795C66.778 506.285 67.407 505.384 67.407 504.177C67.407 502.205 65.775 501.1 63.021 501.1H57.479V513H63.344C66.353 513 67.968 511.725 67.968 509.651C67.968 508.206 67.169 507.22 65.724 506.795ZM60.216 503.14H62.783C63.973 503.14 64.602 503.65 64.602 504.585C64.602 505.537 63.973 506.03 62.783 506.03H60.216V503.14ZM63.242 510.96H60.216V507.951H63.242C64.517 507.951 65.18 508.427 65.18 509.43C65.18 510.467 64.517 510.96 63.242 510.96ZM75.824 513.204C79.564 513.204 82.335 510.603 82.335 507.05C82.335 503.497 79.564 500.896 75.824 500.896C72.067 500.896 69.313 503.514 69.313 507.05C69.313 510.586 72.067 513.204 75.824 513.204ZM75.824 510.858C73.699 510.858 72.101 509.311 72.101 507.05C72.101 504.789 73.699 503.242 75.824 503.242C77.949 503.242 79.547 504.789 79.547 507.05C79.547 509.311 77.949 510.858 75.824 510.858ZM94.7325 510.756V501.1H85.5865L85.4505 504.823C85.3315 508.155 84.9405 510.705 83.3935 510.756H82.9175L82.9005 515.465H85.4505V513H93.8485V515.465H96.3985V510.756H94.7325ZM87.8815 505.078L87.9325 503.344H92.0125V510.756H86.6915C87.5075 509.787 87.7795 507.611 87.8815 505.078ZM98.2524 513H100.853L106.531 505.265V513H109.251V501.1H106.667L100.989 508.852V501.1H98.2524V513ZM121.309 501.1H110.99V503.344H114.781V513H117.501V503.344H121.309V501.1ZM125.776 510.79V508.036H131.301V505.894H125.776V503.31H132.032V501.1H123.039V513H132.253V510.79H125.776ZM135.939 501.1L135.769 505.928C135.65 508.971 135.293 510.739 133.899 510.739C133.729 510.739 133.576 510.722 133.406 510.671L133.236 513C133.746 513.119 134.188 513.187 134.596 513.187C137.384 513.187 138.047 510.501 138.2 505.826L138.285 503.344H142.365V513H145.085V501.1H135.939ZM153.82 505.01H150.794V501.1H148.057V513H153.429C156.489 513 158.325 511.589 158.325 508.852C158.325 506.285 156.693 505.01 153.82 505.01ZM153.276 510.96H150.794V507.05H153.276C154.704 507.05 155.554 507.594 155.554 508.903C155.554 510.246 154.687 510.96 153.276 510.96Z" fill="white"/>
<path d="M219.5 494L222.306 502.637H231.388L224.041 507.975L226.847 516.613L219.5 511.275L212.153 516.613L214.959 507.975L207.612 502.637H216.694L219.5 494Z" fill="white"/>
<path d="M248.5 494L251.306 502.637H260.388L253.041 507.975L255.847 516.613L248.5 511.275L241.153 516.613L243.959 507.975L236.612 502.637H245.694L248.5 494Z" fill="white"/>
<path d="M277.5 494L280.306 502.637H289.388L282.041 507.975L284.847 516.613L277.5 511.275L270.153 516.613L272.959 507.975L265.612 502.637H274.694L277.5 494Z" fill="white"/>
<path d="M306.5 494L309.306 502.637H318.388L311.041 507.975L313.847 516.613L306.5 511.275L299.153 516.613L301.959 507.975L294.612 502.637H303.694L306.5 494Z" fill="white"/>
<path d="M334.5 494L337.306 502.637H346.388L339.041 507.975L341.847 516.613L334.5 511.275L327.153 516.613L329.959 507.975L322.612 502.637H331.694L334.5 494Z" fill="white"/>
<path d="M57.479 538.1V550H60.216V540.344H65.588V550H68.325V538.1H57.479ZM80.3869 550H83.2769L77.9559 538.1H75.2359L69.9319 550H72.7539L73.8079 547.45H79.3329L80.3869 550ZM74.6919 545.359L76.5789 540.803L78.4659 545.359H74.6919ZM90.316 550.204C92.39 550.204 94.107 549.456 95.229 548.079L93.461 546.447C92.662 547.382 91.659 547.858 90.469 547.858C88.242 547.858 86.661 546.294 86.661 544.05C86.661 541.806 88.242 540.242 90.469 540.242C91.659 540.242 92.662 540.718 93.461 541.636L95.229 540.004C94.107 538.644 92.39 537.896 90.333 537.896C86.627 537.896 83.873 540.463 83.873 544.05C83.873 547.637 86.627 550.204 90.316 550.204ZM102.402 550.204C104.476 550.204 106.193 549.456 107.315 548.079L105.547 546.447C104.748 547.382 103.745 547.858 102.555 547.858C100.328 547.858 98.7469 546.294 98.7469 544.05C98.7469 541.806 100.328 540.242 102.555 540.242C103.745 540.242 104.748 540.718 105.547 541.636L107.315 540.004C106.193 538.644 104.476 537.896 102.419 537.896C98.7129 537.896 95.9589 540.463 95.9589 544.05C95.9589 547.637 98.7129 550.204 102.402 550.204ZM117.989 550H120.879L115.558 538.1H112.838L107.534 550H110.356L111.41 547.45H116.935L117.989 550ZM112.294 545.359L114.181 540.803L116.068 545.359H112.294ZM135.307 550H138.486L134.933 543.778L138.265 538.1H135.358L132.672 542.911H130.904V538.1H128.201V542.911H126.382L123.713 538.1H120.806L124.155 543.778L120.585 550H123.764L126.433 545.206H128.201V550H130.904V545.206H132.638L135.307 550ZM139.806 550H142.407L148.085 542.265V550H150.805V538.1H148.221L142.543 545.852V538.1H139.806V550ZM158.919 538.1H153.768V550H156.522V546.719H158.919C162.098 546.719 164.087 545.07 164.087 542.418C164.087 539.749 162.098 538.1 158.919 538.1ZM158.766 544.475H156.522V540.344H158.766C160.449 540.344 161.299 541.109 161.299 542.418C161.299 543.71 160.449 544.475 158.766 544.475Z" fill="white"/>
<path d="M219.5 531L222.306 539.637H231.388L224.041 544.975L226.847 553.613L219.5 548.275L212.153 553.613L214.959 544.975L207.612 539.637H216.694L219.5 531Z" fill="white"/>
<path d="M248.5 531L251.306 539.637H260.388L253.041 544.975L255.847 553.613L248.5 548.275L241.153 553.613L243.959 544.975L236.612 539.637H245.694L248.5 531Z" fill="white"/>
<path d="M277.5 531L280.306 539.637H289.388L282.041 544.975L284.847 553.613L277.5 548.275L270.153 553.613L272.959 544.975L265.612 539.637H274.694L277.5 531Z" fill="white"/>
<path d="M306.5 531L309.306 539.637H318.388L311.041 544.975L313.847 553.613L306.5 548.275L299.153 553.613L301.959 544.975L294.612 539.637H303.694L306.5 531Z" fill="white"/>
<path d="M334.5 531L337.306 539.637H346.388L339.041 544.975L341.847 553.613L334.5 548.275L327.153 553.613L329.959 544.975L322.612 539.637H331.694L334.5 531Z" fill="white"/>
<path d="M164.15 683.55C169.083 683.55 172.733 684.517 175.1 686.45C177.467 688.35 178.65 690.95 178.65 694.25C178.65 696.35 178.133 698.25 177.1 699.95C176.067 701.65 174.517 703 172.45 704C170.383 705 167.833 705.5 164.8 705.5C162.3 705.5 159.883 705.15 157.55 704.45C155.217 703.717 153.25 702.717 151.65 701.45L154.4 696.4C155.7 697.467 157.25 698.317 159.05 698.95C160.883 699.55 162.767 699.85 164.7 699.85C167 699.85 168.8 699.383 170.1 698.45C171.433 697.483 172.1 696.167 172.1 694.5C172.1 692.7 171.383 691.35 169.95 690.45C168.55 689.517 166.133 689.05 162.7 689.05H154.25L156.05 670H176.6V675.45H161.55L160.8 683.55H164.15ZM214.168 691.1C215.834 691.567 217.118 692.333 218.018 693.4C218.951 694.433 219.418 695.683 219.418 697.15C219.418 698.783 218.868 700.233 217.768 701.5C216.668 702.733 215.151 703.7 213.218 704.4C211.284 705.1 209.084 705.45 206.618 705.45C204.551 705.45 202.534 705.217 200.568 704.75C198.601 704.25 196.818 703.55 195.218 702.65L197.018 698C198.318 698.733 199.784 699.3 201.418 699.7C203.051 700.1 204.684 700.3 206.318 700.3C208.418 700.3 210.051 699.983 211.218 699.35C212.418 698.683 213.018 697.783 213.018 696.65C213.018 695.617 212.551 694.817 211.618 694.25C210.718 693.683 209.434 693.4 207.768 693.4H202.568V689.2H207.268C208.834 689.2 210.051 688.933 210.918 688.4C211.818 687.867 212.268 687.117 212.268 686.15C212.268 685.183 211.734 684.417 210.668 683.85C209.601 683.283 208.134 683 206.268 683C203.601 683 200.784 683.65 197.818 684.95L196.218 680.35C199.718 678.717 203.251 677.9 206.818 677.9C209.084 677.9 211.118 678.217 212.918 678.85C214.718 679.45 216.118 680.317 217.118 681.45C218.151 682.55 218.668 683.817 218.668 685.25C218.668 686.55 218.268 687.717 217.468 688.75C216.668 689.75 215.568 690.533 214.168 691.1ZM245.253 691.1C248.553 692.1 250.203 694.233 250.203 697.5C250.203 699.9 249.303 701.75 247.503 703.05C245.703 704.35 243.036 705 239.503 705H225.903V678.3H238.953C242.22 678.3 244.77 678.9 246.603 680.1C248.436 681.3 249.353 683 249.353 685.2C249.353 686.567 248.986 687.75 248.253 688.75C247.553 689.75 246.553 690.533 245.253 691.1ZM231.853 689.45H238.403C241.636 689.45 243.253 688.333 243.253 686.1C243.253 683.933 241.636 682.85 238.403 682.85H231.853V689.45ZM239.003 700.45C242.436 700.45 244.153 699.333 244.153 697.1C244.153 695.933 243.753 695.067 242.953 694.5C242.153 693.9 240.903 693.6 239.203 693.6H231.853V700.45H239.003ZM281.86 691.8C281.86 692.233 281.827 692.85 281.76 693.65H260.81C261.177 695.617 262.127 697.183 263.66 698.35C265.227 699.483 267.16 700.05 269.46 700.05C272.393 700.05 274.81 699.083 276.71 697.15L280.06 701C278.86 702.433 277.343 703.517 275.51 704.25C273.677 704.983 271.61 705.35 269.31 705.35C266.377 705.35 263.793 704.767 261.56 703.6C259.327 702.433 257.593 700.817 256.36 698.75C255.16 696.65 254.56 694.283 254.56 691.65C254.56 689.05 255.143 686.717 256.31 684.65C257.51 682.55 259.16 680.917 261.26 679.75C263.36 678.583 265.727 678 268.36 678C270.96 678 273.277 678.583 275.31 679.75C277.377 680.883 278.977 682.5 280.11 684.6C281.277 686.667 281.86 689.067 281.86 691.8ZM268.36 683C266.36 683 264.66 683.6 263.26 684.8C261.893 685.967 261.06 687.533 260.76 689.5H275.91C275.643 687.567 274.827 686 273.46 684.8C272.093 683.6 270.393 683 268.36 683ZM304.158 691.1C305.824 691.567 307.108 692.333 308.008 693.4C308.941 694.433 309.408 695.683 309.408 697.15C309.408 698.783 308.858 700.233 307.758 701.5C306.658 702.733 305.141 703.7 303.208 704.4C301.274 705.1 299.074 705.45 296.608 705.45C294.541 705.45 292.524 705.217 290.558 704.75C288.591 704.25 286.808 703.55 285.208 702.65L287.008 698C288.308 698.733 289.774 699.3 291.408 699.7C293.041 700.1 294.674 700.3 296.308 700.3C298.408 700.3 300.041 699.983 301.208 699.35C302.408 698.683 303.008 697.783 303.008 696.65C303.008 695.617 302.541 694.817 301.608 694.25C300.708 693.683 299.424 693.4 297.758 693.4H292.558V689.2H297.258C298.824 689.2 300.041 688.933 300.908 688.4C301.808 687.867 302.258 687.117 302.258 686.15C302.258 685.183 301.724 684.417 300.658 683.85C299.591 683.283 298.124 683 296.258 683C293.591 683 290.774 683.65 287.808 684.95L286.208 680.35C289.708 678.717 293.241 677.9 296.808 677.9C299.074 677.9 301.108 678.217 302.908 678.85C304.708 679.45 306.108 680.317 307.108 681.45C308.141 682.55 308.658 683.817 308.658 685.25C308.658 686.55 308.258 687.717 307.458 688.75C306.658 689.75 305.558 690.533 304.158 691.1ZM344.393 699.7V710.95H338.543V705H317.943V710.95H312.143V699.7H313.393C315.093 699.633 316.243 698.55 316.843 696.45C317.477 694.317 317.893 691.317 318.093 687.45L318.443 678.3H340.443V699.7H344.393ZM323.793 687.9C323.66 690.967 323.41 693.467 323.043 695.4C322.677 697.333 322.01 698.767 321.043 699.7H334.193V683.6H323.943L323.793 687.9Z" fill="white"/>
<path d="M127.92 685.054C127.883 683.056 127.846 681.168 127.846 679.342C127.846 677.912 126.69 676.752 125.264 676.752C114.218 676.752 105.809 673.569 98.7991 666.733C97.7963 665.755 96.2006 665.756 95.1982 666.733C88.1891 673.569 79.7809 676.752 68.7363 676.752C67.31 676.752 66.1536 677.912 66.1536 679.342C66.1536 681.169 66.1178 683.057 66.0796 685.055C65.7256 703.648 65.2408 729.111 96.1527 739.857C96.4268 739.952 96.7126 740 96.9985 740C97.2843 740 97.5704 739.952 97.8442 739.857C128.759 729.111 128.274 703.647 127.92 685.054ZM96.9988 734.661C70.4877 725.002 70.8886 703.844 71.2443 685.154C71.2656 684.032 71.2863 682.945 71.3008 681.879C81.6453 681.441 89.9174 678.297 96.9988 672.111C104.081 678.297 112.354 681.442 122.7 681.879C122.714 682.944 122.735 684.031 122.756 685.152C123.111 703.843 123.512 725.002 96.9988 734.661Z" fill="white"/>
<path d="M105.893 694.002L93.4271 706.503L88.1078 701.168C87.0992 700.157 85.4639 700.157 84.4556 701.168C83.447 702.18 83.447 703.82 84.4556 704.832L91.601 711.998C92.1052 712.503 92.7663 712.756 93.4271 712.756C94.088 712.756 94.7491 712.503 95.2533 711.998L109.544 697.665C110.553 696.654 110.553 695.014 109.545 694.002C108.537 692.991 106.901 692.991 105.893 694.002Z" fill="white"/>
<path d="M159.325 720.3C160.592 720.3 161.708 720.575 162.675 721.125C163.642 721.658 164.392 722.408 164.925 723.375C165.475 724.342 165.75 725.45 165.75 726.7C165.75 727.983 165.45 729.125 164.85 730.125C164.25 731.108 163.408 731.875 162.325 732.425C161.242 732.975 160.008 733.25 158.625 733.25C156.308 733.25 154.517 732.483 153.25 730.95C151.983 729.417 151.35 727.208 151.35 724.325C151.35 721.642 151.925 719.517 153.075 717.95C154.225 716.383 155.983 715.35 158.35 714.85L164.55 713.525L165 716.325L159.375 717.475C157.758 717.808 156.55 718.375 155.75 719.175C154.95 719.975 154.483 721.1 154.35 722.55C154.95 721.833 155.675 721.283 156.525 720.9C157.375 720.5 158.308 720.3 159.325 720.3ZM158.7 730.725C159.85 730.725 160.775 730.358 161.475 729.625C162.192 728.875 162.55 727.925 162.55 726.775C162.55 725.625 162.192 724.7 161.475 724C160.775 723.3 159.85 722.95 158.7 722.95C157.533 722.95 156.592 723.3 155.875 724C155.158 724.7 154.8 725.625 154.8 726.775C154.8 727.942 155.158 728.892 155.875 729.625C156.608 730.358 157.55 730.725 158.7 730.725ZM181.275 726.4C181.275 726.617 181.258 726.925 181.225 727.325H170.75C170.933 728.308 171.408 729.092 172.175 729.675C172.958 730.242 173.925 730.525 175.075 730.525C176.541 730.525 177.75 730.042 178.7 729.075L180.375 731C179.775 731.717 179.016 732.258 178.1 732.625C177.183 732.992 176.15 733.175 175 733.175C173.533 733.175 172.241 732.883 171.125 732.3C170.008 731.717 169.141 730.908 168.525 729.875C167.925 728.825 167.625 727.642 167.625 726.325C167.625 725.025 167.916 723.858 168.5 722.825C169.1 721.775 169.925 720.958 170.975 720.375C172.025 719.792 173.208 719.5 174.525 719.5C175.825 719.5 176.983 719.792 178 720.375C179.033 720.942 179.833 721.75 180.4 722.8C180.983 723.833 181.275 725.033 181.275 726.4ZM174.525 722C173.525 722 172.675 722.3 171.975 722.9C171.291 723.483 170.875 724.267 170.725 725.25H178.3C178.166 724.283 177.758 723.5 177.075 722.9C176.391 722.3 175.541 722 174.525 722ZM192.424 726.05C193.257 726.283 193.899 726.667 194.349 727.2C194.815 727.717 195.049 728.342 195.049 729.075C195.049 729.892 194.774 730.617 194.224 731.25C193.674 731.867 192.915 732.35 191.949 732.7C190.982 733.05 189.882 733.225 188.649 733.225C187.615 733.225 186.607 733.108 185.624 732.875C184.64 732.625 183.749 732.275 182.949 731.825L183.849 729.5C184.499 729.867 185.232 730.15 186.049 730.35C186.865 730.55 187.682 730.65 188.499 730.65C189.549 730.65 190.365 730.492 190.949 730.175C191.549 729.842 191.849 729.392 191.849 728.825C191.849 728.308 191.615 727.908 191.149 727.625C190.699 727.342 190.057 727.2 189.224 727.2H186.624V725.1H188.974C189.757 725.1 190.365 724.967 190.799 724.7C191.249 724.433 191.474 724.058 191.474 723.575C191.474 723.092 191.207 722.708 190.674 722.425C190.14 722.142 189.407 722 188.474 722C187.14 722 185.732 722.325 184.249 722.975L183.449 720.675C185.199 719.858 186.965 719.45 188.749 719.45C189.882 719.45 190.899 719.608 191.799 719.925C192.699 720.225 193.399 720.658 193.899 721.225C194.415 721.775 194.674 722.408 194.674 723.125C194.674 723.775 194.474 724.358 194.074 724.875C193.674 725.375 193.124 725.767 192.424 726.05ZM204.241 733.175C202.891 733.175 201.675 732.883 200.591 732.3C199.508 731.717 198.658 730.908 198.041 729.875C197.441 728.825 197.141 727.642 197.141 726.325C197.141 725.008 197.441 723.833 198.041 722.8C198.658 721.767 199.508 720.958 200.591 720.375C201.675 719.792 202.891 719.5 204.241 719.5C205.608 719.5 206.833 719.792 207.916 720.375C209 720.958 209.841 721.767 210.441 722.8C211.058 723.833 211.366 725.008 211.366 726.325C211.366 727.642 211.058 728.825 210.441 729.875C209.841 730.908 209 731.717 207.916 732.3C206.833 732.883 205.608 733.175 204.241 733.175ZM204.241 730.5C205.391 730.5 206.341 730.117 207.091 729.35C207.841 728.583 208.216 727.575 208.216 726.325C208.216 725.075 207.841 724.067 207.091 723.3C206.341 722.533 205.391 722.15 204.241 722.15C203.091 722.15 202.141 722.533 201.391 723.3C200.658 724.067 200.291 725.075 200.291 726.325C200.291 727.575 200.658 728.583 201.391 729.35C202.141 730.117 203.091 730.5 204.241 730.5ZM227.254 719.65V733H224.154V722.3H217.579V733H214.454V719.65H227.254ZM236.445 719.5C238.412 719.5 239.912 719.975 240.945 720.925C241.995 721.858 242.52 723.275 242.52 725.175V733H239.57V731.375C239.187 731.958 238.637 732.408 237.92 732.725C237.22 733.025 236.37 733.175 235.37 733.175C234.37 733.175 233.495 733.008 232.745 732.675C231.995 732.325 231.412 731.85 230.995 731.25C230.595 730.633 230.395 729.942 230.395 729.175C230.395 727.975 230.837 727.017 231.72 726.3C232.62 725.567 234.028 725.2 235.945 725.2H239.395V725C239.395 724.067 239.112 723.35 238.545 722.85C237.995 722.35 237.17 722.1 236.07 722.1C235.32 722.1 234.578 722.217 233.845 722.45C233.128 722.683 232.52 723.008 232.02 723.425L230.795 721.15C231.495 720.617 232.337 720.208 233.32 719.925C234.303 719.642 235.345 719.5 236.445 719.5ZM236.02 730.9C236.803 730.9 237.495 730.725 238.095 730.375C238.712 730.008 239.145 729.492 239.395 728.825V727.275H236.17C234.37 727.275 233.47 727.867 233.47 729.05C233.47 729.617 233.695 730.067 234.145 730.4C234.595 730.733 235.22 730.9 236.02 730.9ZM252.462 733.175C251.079 733.175 249.837 732.883 248.737 732.3C247.637 731.717 246.779 730.908 246.162 729.875C245.545 728.825 245.237 727.642 245.237 726.325C245.237 725.008 245.545 723.833 246.162 722.8C246.779 721.767 247.629 720.958 248.712 720.375C249.812 719.792 251.062 719.5 252.462 719.5C253.779 719.5 254.929 719.767 255.912 720.3C256.912 720.833 257.662 721.6 258.162 722.6L255.762 724C255.379 723.383 254.895 722.925 254.312 722.625C253.745 722.308 253.12 722.15 252.437 722.15C251.27 722.15 250.304 722.533 249.537 723.3C248.77 724.05 248.387 725.058 248.387 726.325C248.387 727.592 248.762 728.608 249.512 729.375C250.279 730.125 251.254 730.5 252.437 730.5C253.12 730.5 253.745 730.35 254.312 730.05C254.895 729.733 255.379 729.267 255.762 728.65L258.162 730.05C257.645 731.05 256.887 731.825 255.887 732.375C254.904 732.908 253.762 733.175 252.462 733.175ZM260.913 719.65H264.038V725.075H270.763V719.65H273.888V733H270.763V727.725H264.038V733H260.913V719.65ZM284.027 733.175C282.677 733.175 281.46 732.883 280.377 732.3C279.293 731.717 278.443 730.908 277.827 729.875C277.227 728.825 276.927 727.642 276.927 726.325C276.927 725.008 277.227 723.833 277.827 722.8C278.443 721.767 279.293 720.958 280.377 720.375C281.46 719.792 282.677 719.5 284.027 719.5C285.393 719.5 286.618 719.792 287.702 720.375C288.785 720.958 289.627 721.767 290.227 722.8C290.843 723.833 291.152 725.008 291.152 726.325C291.152 727.642 290.843 728.825 290.227 729.875C289.627 730.908 288.785 731.717 287.702 732.3C286.618 732.883 285.393 733.175 284.027 733.175ZM284.027 730.5C285.177 730.5 286.127 730.117 286.877 729.35C287.627 728.583 288.002 727.575 288.002 726.325C288.002 725.075 287.627 724.067 286.877 723.3C286.127 722.533 285.177 722.15 284.027 722.15C282.877 722.15 281.927 722.533 281.177 723.3C280.443 724.067 280.077 725.075 280.077 726.325C280.077 727.575 280.443 728.583 281.177 729.35C281.927 730.117 282.877 730.5 284.027 730.5ZM300.314 733.175C298.93 733.175 297.689 732.883 296.589 732.3C295.489 731.717 294.63 730.908 294.014 729.875C293.397 728.825 293.089 727.642 293.089 726.325C293.089 725.008 293.397 723.833 294.014 722.8C294.63 721.767 295.48 720.958 296.564 720.375C297.664 719.792 298.914 719.5 300.314 719.5C301.63 719.5 302.78 719.767 303.764 720.3C304.764 720.833 305.514 721.6 306.014 722.6L303.614 724C303.23 723.383 302.747 722.925 302.164 722.625C301.597 722.308 300.972 722.15 300.289 722.15C299.122 722.15 298.155 722.533 297.389 723.3C296.622 724.05 296.239 725.058 296.239 726.325C296.239 727.592 296.614 728.608 297.364 729.375C298.13 730.125 299.105 730.5 300.289 730.5C300.972 730.5 301.597 730.35 302.164 730.05C302.747 729.733 303.23 729.267 303.614 728.65L306.014 730.05C305.497 731.05 304.739 731.825 303.739 732.375C302.755 732.908 301.614 733.175 300.314 733.175ZM319.218 722.3H314.543V733H311.418V722.3H306.718V719.65H319.218V722.3ZM321.485 719.65H324.61V728.45L331.985 719.65H334.835V733H331.71V724.2L324.36 733H321.485V719.65Z" fill="white"/>
</svg>
